<?xml version="1.0" encoding="UTF-8"?>
<svg version="1.1" xmlns="http://www.w3.org/2000/svg" width="184" height="248">
<path d="M0 0 C0.960271 0.53125488 0.960271 0.53125488 1.93994141 1.07324219 C17.40350626 9.63668754 17.40350626 9.63668754 19.41796875 16.3515625 C19.61003906 17.22554687 19.80210938 18.09953125 20 19 C20.32613281 20.16273437 20.65226562 21.32546875 20.98828125 22.5234375 C22.53636641 28.15623778 23.85598342 33.78396117 24.70703125 39.56640625 C26.0172047 49.47451528 26.0172047 49.47451528 31.6953125 57.4453125 C35.64700387 62.15421419 34.03842267 69.79859649 33.59570312 75.51928711 C32.88964926 83.05547493 31.52401083 89.52919692 28.21875 96.421875 C26.89504217 99.22202617 25.93190411 102.04897031 25 105 C25.94617188 105.01417969 26.89234375 105.02835937 27.8671875 105.04296875 C40.79867068 105.43342807 56.90660926 107.1682831 67 116 C69.01401363 120.02802726 69.20637038 122.05413574 68.25 126.4375 C63.37093254 135.78039513 51.72970152 140.5731816 42.8515625 145.35546875 C38.78384528 147.55013264 34.79791315 149.86078965 30.8215332 152.21606445 C23.96134392 156.27035553 17.04682911 160.14673091 9.875 163.625 C8.88197876 164.1212085 8.88197876 164.1212085 7.86889648 164.62744141 C2.97066749 166.9300962 -1.61375634 167.68133335 -7 168 C-5.45447547 164.6946019 -4.01637026 162.99763122 -1.125 160.75 C1.9599892 158.20942065 3.46207403 156.37394375 4.8125 152.625 C5.69140625 150.57421875 5.69140625 150.57421875 7 149 C9.76168071 148.44766386 12.38995907 148.43398251 15.203125 148.36328125 C20.16755894 147.71845952 22.698947 144.53020677 26 141 C32.8630472 133.83216204 39.39844268 127.99057088 48 123 C47.29504395 123.12117187 46.59008789 123.24234375 45.86376953 123.3671875 C42.61889635 123.91995869 39.37202933 124.46004456 36.125 125 C35.01640625 125.19078125 33.9078125 125.3815625 32.765625 125.578125 C12.98105663 128.83675979 12.98105663 128.83675979 4.30859375 122.828125 C1.33761499 120.50861387 -0.62271994 118.490802 -2 115 C-2.56550849 109.88547473 -2.70483086 104.50805143 0 100 C2.23645891 97.42468368 4.53058065 95.32764841 7.328125 93.375 C12.51960609 89.92225881 12.51960609 89.92225881 14.8125 84.375 C13.65209664 79.55486298 12.08408483 77.31206071 7.859375 74.65234375 C-3.44680755 68.55482706 -15.53321087 68.49998436 -28.125 67.87695312 C-39.45647008 67.21495672 -49.53963552 64.96890298 -59.9375 60.4375 C-61.3632559 59.83197157 -62.7890365 59.22650127 -64.21484375 58.62109375 C-64.86565918 58.34120605 -65.51647461 58.06131836 -66.18701172 57.77294922 C-68.44331905 56.8109954 -70.71749364 55.89781561 -73 55 C-73.2475 55.5775 -73.495 56.155 -73.75 56.75 C-75.17619535 59.31715164 -76.89732966 60.96104694 -79 63 C-79.515625 63.7425 -80.03125 64.485 -80.5625 65.25 C-81.036875 65.8275 -81.51125 66.405 -82 67 C-82.99 67 -83.98 67 -85 67 C-84.67 64.69 -84.34 62.38 -84 60 C-84.70125 60.28875 -85.4025 60.5775 -86.125 60.875 C-89.05452503 62.02133588 -92.00921653 63.02625654 -95 64 C-95 63.01 -95 62.02 -95 61 C-92.8046875 58.84375 -92.8046875 58.84375 -89.875 56.5 C-88.92367187 55.7265625 -87.97234375 54.953125 -86.9921875 54.15625 C-79.895144 49.04193145 -74.59464494 47.88392647 -66 49 C-60.61190586 50.24908738 -55.33303305 51.86042962 -50.05078125 53.4921875 C-42.63912123 55.75082456 -35.64866169 57.37179143 -27.875 57.3125 C-27.15578369 57.31121094 -26.43656738 57.30992188 -25.69555664 57.30859375 C-18.24937723 57.17820208 -11.22036301 55.76567829 -4 54 C-4.495 50.04 -4.495 50.04 -5 46 C-8.07818701 44.76414572 -8.07818701 44.76414572 -11.8125 45.25 C-15.24617656 45.32616288 -16.87639393 44.71853625 -19.5 42.5 C-20.7375 41.2625 -20.7375 41.2625 -22 40 C-21.83951172 41.03060547 -21.83951172 41.03060547 -21.67578125 42.08203125 C-21.55589844 42.98308594 -21.43601562 43.88414063 -21.3125 44.8125 C-21.18488281 45.70582031 -21.05726562 46.59914062 -20.92578125 47.51953125 C-21 50 -21 50 -22.23046875 51.88671875 C-24 53 -24 53 -26.046875 52.9140625 C-29.158405 51.45786646 -29.86926419 49.22293353 -31.23046875 46.19140625 C-32.39529991 42.87429822 -32.58870697 40.46682994 -32 37 C-28.28865979 32.25773196 -28.28865979 32.25773196 -24.8125 31.5625 C-24.214375 31.376875 -23.61625 31.19125 -23 31 C-22.79375 30.0925 -22.5875 29.185 -22.375 28.25 C-20.48508081 23.78291827 -17.9216233 22.78463181 -13.60546875 20.84765625 C-10.00705647 19.6769584 -7.58695249 19.8521752 -4 21 C-1.5625 22.4375 -1.5625 22.4375 0 24 C0 24.66 0 25.32 0 26 C1.175625 26.4640625 1.175625 26.4640625 2.375 26.9375 C5 28 5 28 7 29 C6.56035733 32.15077244 6.17587848 34.66499337 4.6875 37.5 C3.63955334 40.21236739 3.63955334 40.21236739 5.6875 43.3125 C6.450625 44.199375 7.21375 45.08625 8 46 C8.99 46 9.98 46 11 46 C12.8366698 42.32666039 12.11601312 38.03145581 12 34 C11.99226563 32.85724609 11.99226563 32.85724609 11.984375 31.69140625 C11.57119111 23.41297184 7.71428455 17.4372139 1.76953125 11.8515625 C0.56463334 10.80613398 -0.65033804 9.7722049 -1.875 8.75 C-2.45145264 8.24742676 -3.02790527 7.74485352 -3.62182617 7.22705078 C-6.10924456 5.27789456 -7.83134141 3.94512434 -11.06933594 4.09716797 C-13.12728007 4.59270556 -15.03162407 5.22514053 -17 6 C-17.8353125 6.28101563 -18.670625 6.56203125 -19.53125 6.8515625 C-20.1809375 7.10679688 -20.830625 7.36203125 -21.5 7.625 C-22.655 8.07875 -23.81 8.5325 -25 9 C-24.67 7.35 -24.34 5.7 -24 4 C-27.3 4 -30.6 4 -34 4 C-34 2.68 -34 1.36 -34 0 C-32.43979133 -0.65134925 -30.87671421 -1.29582964 -29.3125 -1.9375 C-28.44238281 -2.29714844 -27.57226562 -2.65679687 -26.67578125 -3.02734375 C-16.52190648 -6.71831429 -9.12230379 -5.37456736 0 0 Z " fill="#1C1C1C" transform="translate(104,14)"/>
<path d="M0 0 C0.99 0.33 1.98 0.66 3 1 C2.60167969 1.51949219 2.20335938 2.03898437 1.79296875 2.57421875 C-0.54873514 5.65660757 -2.79696723 8.65194382 -4.75 12 C-5.1625 12.66 -5.575 13.32 -6 14 C-6.66 14 -7.32 14 -8 14 C-8.28101562 14.72574219 -8.56203125 15.45148438 -8.8515625 16.19921875 C-10.29579171 19.72136957 -11.99705188 23.07189645 -13.7265625 26.4609375 C-14.48379011 27.97074715 -15.21739463 29.4933913 -15.8984375 31.0390625 C-22.17445564 45.03055249 -34.0366827 55.2605951 -48 61 C-56.44957731 63.14776166 -66.49254734 62.95176829 -74.28125 58.77734375 C-79.60960715 55.35588154 -84.34952279 51.28300081 -89 47 C-88.67 46.01 -88.34 45.02 -88 44 C-87.47535156 44.3609375 -86.95070313 44.721875 -86.41015625 45.09375 C-77.19539916 50.61340483 -66.75792929 50.0958582 -56.375 48.5 C-44.40402575 45.16572477 -29.94529433 36.41794149 -23 26 C-22.34 26 -21.68 26 -21 26 C-20.7525 25.46375 -20.505 24.9275 -20.25 24.375 C-18.69347463 21.4176018 -16.96564327 18.70275949 -15 16 C-14.34 16 -13.68 16 -13 16 C-12.78601563 15.46890625 -12.57203125 14.9378125 -12.3515625 14.390625 C-10.48655451 11.09182474 -7.95775758 8.49008292 -5.375 5.75 C-4.859375 5.19570312 -4.34375 4.64140625 -3.8125 4.0703125 C-2.54574965 2.7097288 -1.27342185 1.35434163 0 0 Z " fill="#252525" transform="translate(106,97)"/>
<path d="M0 0 C0.66 0 1.32 0 2 0 C2.350625 1.175625 2.70125 2.35125 3.0625 3.5625 C5.39171976 9.59923927 8.86719355 13.54390686 14.7734375 16.2890625 C25.02151135 19.95097064 34.0162213 20.49164241 44.625 18.3125 C45.51445313 18.15072266 46.40390625 17.98894531 47.3203125 17.82226562 C53.09406381 16.68874239 57.8980022 14.91368658 63 12 C63.91007812 11.49597656 64.82015625 10.99195312 65.7578125 10.47265625 C69.54048232 8.21928364 73.15724193 6.00303317 76.5 3.125 C79 1 79 1 81 1 C80.14256944 5.46465599 77.59899629 8.02444613 74.5625 11.25 C74.05912109 11.80429688 73.55574219 12.35859375 73.03710938 12.9296875 C71.73772575 14.33088206 70.37301326 15.670873 69 17 C68.34 17 67.68 17 67 17 C66.77183594 17.58910156 66.54367188 18.17820312 66.30859375 18.78515625 C61.75181078 26.49768145 48.31974793 31.5886383 39.9375 33.8125 C38.968125 33.874375 37.99875 33.93625 37 34 C36.26394531 34.05027344 35.52789062 34.10054687 34.76953125 34.15234375 C26.09966086 34.48838524 17.73769349 32.7123923 11 27 C4.23861129 19.92714617 -0.08719645 12.84517323 -0.1875 2.875 C-0.125625 1.92625 -0.06375 0.9775 0 0 Z " fill="#2F2F2F" transform="translate(13,101)"/>
<path d="M0 0 C0.66 0.66 1.32 1.32 2 2 C1.69364624 2.91640259 1.69364624 2.91640259 1.38110352 3.85131836 C-0.51450349 9.78694844 -1.58918054 15.36183232 -2.0625 21.5625 C-2.13992432 22.44510498 -2.21734863 23.32770996 -2.29711914 24.23706055 C-2.7389276 29.36801265 -3.10758918 34.50291059 -3.4609375 39.640625 C-3.54077881 40.75107178 -3.62062012 41.86151855 -3.70288086 43.00561523 C-3.85577384 45.16059488 -3.99775637 47.31638501 -4.12719727 49.47290039 C-4.55539465 55.54484745 -5.55179979 60.41650251 -8 66 C-10.31 66 -12.62 66 -15 66 C-14.7525 65.195625 -14.505 64.39125 -14.25 63.5625 C-13.83108354 57.59294047 -16.75140935 52.87288598 -20 48 C-19.9375 45.4375 -19.9375 45.4375 -19 43 C-16.5 41.75 -16.5 41.75 -14 41 C-12.6520603 39.87325434 -12.6520603 39.87325434 -12.81640625 36.93359375 C-13.01038424 32.77751211 -13.82770566 29.04470322 -14.9375 25.0625 C-16.40895344 19.70183395 -17.41252463 14.53463641 -18 9 C-12 6 -6 3 0 0 Z " fill="#262626" transform="translate(120,182)"/>
<path d="M0 0 C0.680625 0.7425 1.36125 1.485 2.0625 2.25 C8.91752571 9.06629676 16.27470387 10.14140403 25.6875 10.1875 C27.64236328 10.20876953 27.64236328 10.20876953 29.63671875 10.23046875 C39.01542443 9.9375891 47.37065284 7.3888205 56 3.875 C57.83156269 3.1388086 59.66482669 2.40683164 61.5 1.6796875 C62.69109375 1.19604736 62.69109375 1.19604736 63.90625 0.70263672 C66 0 66 0 69 0 C67.66472858 4.00581427 65.2121464 4.85742619 61.6875 6.75 C60.40442651 7.4560846 59.12188309 8.16313318 57.83984375 8.87109375 C57.1938623 9.2254248 56.54788086 9.57975586 55.88232422 9.94482422 C53.12479874 11.49061217 50.44551079 13.16154346 47.75 14.8125 C37.29533811 20.84562504 26.31140025 23.13023401 14.28515625 20.37890625 C8.47894818 18.1457493 4.32056664 14.22072092 1 9 C-0.11361712 6.23268535 -0.58049613 3.98896505 -1 1 C-0.67 0.67 -0.34 0.34 0 0 Z " fill="#2F2F2F" transform="translate(33,91)"/>
<path d="M0 0 C2.48415359 0.46002844 4.07193997 1.04766183 6.19921875 2.45703125 C9.9618683 4.52989955 13.60142759 5.04154338 17.8125 5.6875 C18.60076172 5.81705078 19.38902344 5.94660156 20.20117188 6.08007812 C22.13259813 6.39612969 24.06611445 6.69936289 26 7 C24.21116312 10.81725012 22.64600265 12.72124834 19 15 C17.3434604 15.36236804 15.67461511 15.67085742 14 15.9375 C9.22852658 16.71144435 7.15919442 18.24845663 4 22 C3.34 22 2.68 22 2 22 C1.93941406 21.39671875 1.87882812 20.7934375 1.81640625 20.171875 C1.73261719 19.37265625 1.64882812 18.5734375 1.5625 17.75 C1.48128906 16.96109375 1.40007812 16.1721875 1.31640625 15.359375 C1.0560128 13.04162017 1.0560128 13.04162017 0.46875 11 C-0.07230763 8.69148744 -0.09732293 6.61795922 -0.0625 4.25 C-0.05347656 3.45078125 -0.04445313 2.6515625 -0.03515625 1.828125 C-0.02355469 1.22484375 -0.01195313 0.6215625 0 0 Z " fill="#2C2C2C" transform="translate(102,141)"/>
<path d="M0 0 C0.33 0.99 0.66 1.98 1 3 C0.34 3 -0.32 3 -1 3 C-1 3.66 -1 4.32 -1 5 C-0.01 5 0.98 5 2 5 C3.90877584 7.58246143 5.56377246 10.12754491 7 13 C5 12 3 11 1 10 C1.10699219 10.61488281 1.21398437 11.22976562 1.32421875 11.86328125 C1.44410156 12.67152344 1.56398438 13.47976562 1.6875 14.3125 C1.81511719 15.11300781 1.94273438 15.91351563 2.07421875 16.73828125 C2 19 2 19 0.76953125 20.85546875 C-1 22 -1 22 -3.046875 21.9140625 C-6.158405 20.45786646 -6.86926419 18.22293353 -8.23046875 15.19140625 C-9.39529991 11.87429822 -9.58870697 9.46682994 -9 6 C-6.75700764 3.1339542 -5.14050868 1.40071927 -1.6875 0.1875 C-1.130625 0.125625 -0.57375 0.06375 0 0 Z " fill="#595959" transform="translate(81,45)"/>
<path d="M0 0 C0.99 0.33 1.98 0.66 3 1 C2.60167969 1.51949219 2.20335938 2.03898437 1.79296875 2.57421875 C-0.54873514 5.65660757 -2.79696723 8.65194382 -4.75 12 C-5.1625 12.66 -5.575 13.32 -6 14 C-6.66 14 -7.32 14 -8 14 C-8.28875 14.78375 -8.5775 15.5675 -8.875 16.375 C-10 19 -10 19 -12 21 C-12.99 21 -13.98 21 -15 21 C-17.15028304 21.94978897 -17.15028304 21.94978897 -19 23 C-17.68 20.69 -16.36 18.38 -15 16 C-14.34 16 -13.68 16 -13 16 C-12.78601563 15.46890625 -12.57203125 14.9378125 -12.3515625 14.390625 C-10.48655451 11.09182474 -7.95775758 8.49008292 -5.375 5.75 C-4.859375 5.19570312 -4.34375 4.64140625 -3.8125 4.0703125 C-2.54574965 2.7097288 -1.27342185 1.35434163 0 0 Z " fill="#494949" transform="translate(106,97)"/>
<path d="M0 0 C0.66 0.33 1.32 0.66 2 1 C1.67 1.33 1.34 1.66 1 2 C2.98 2 4.96 2 7 2 C7 2.99 7 3.98 7 5 C7.99 5.33 8.98 5.66 10 6 C8.1875 9 8.1875 9 6 12 C5.01 12 4.02 12 3 12 C3.33 9.69 3.66 7.38 4 5 C3.29875 5.28875 2.5975 5.5775 1.875 5.875 C-1.05452503 7.02133588 -4.00921653 8.02625654 -7 9 C-7 6 -7 6 -5.46875 4.39453125 C-4.49421875 3.61142578 -4.49421875 3.61142578 -3.5 2.8125 C-2.8503125 2.28269531 -2.200625 1.75289063 -1.53125 1.20703125 C-1.0259375 0.80871094 -0.520625 0.41039063 0 0 Z " fill="#969696" transform="translate(16,69)"/>
<path d="M0 0 C4.875 4.75 4.875 4.75 6 7 C4.68 6.67 3.36 6.34 2 6 C5.35484442 11.54839655 8.84044512 15.87158754 15.171875 18.1328125 C19.39230018 19.088868 23.13832157 19.22726774 27.4375 19.125 C28.16904297 19.11597656 28.90058594 19.10695313 29.65429688 19.09765625 C31.43634298 19.07436153 33.21821759 19.0385019 35 19 C29.72991026 22.51339316 23.1296958 21.49087913 17 21 C9.86427433 19.39395348 4.89070089 15.11710764 1 9 C-0.11361712 6.23268535 -0.58049613 3.98896505 -1 1 C-0.67 0.67 -0.34 0.34 0 0 Z " fill="#C2C2C2" transform="translate(33,91)"/>
<path d="M0 0 C1.175625 0.33 2.35125 0.66 3.5625 1 C9.74418281 2.39235987 20.18601384 3.90699308 26 1 C27.99960012 0.960008 30.00047242 0.95653201 32 1 C28.00392729 4.99607271 21.51026685 5.1317684 16.0625 5.3125 C10.82209821 5.20572065 5.80615414 4.1166497 1 2 C0.67 1.34 0.34 0.68 0 0 Z " fill="#C5C5C5" transform="translate(29,130)"/>
<path d="M0 0 C-0.85409827 4.50419983 -3.47747469 7.03017333 -6.5625 10.25 C-7.08263672 10.80429688 -7.60277344 11.35859375 -8.13867188 11.9296875 C-9.41930985 13.29256828 -10.7088049 14.64711683 -12 16 C-12.66 15.67 -13.32 15.34 -14 15 C-13.360625 14.401875 -12.72125 13.80375 -12.0625 13.1875 C-9.79689611 11.09189663 -9.79689611 11.09189663 -9 8 C-9.66 7.67 -10.32 7.34 -11 7 C-9.54634731 5.82750647 -8.08692581 4.66216184 -6.625 3.5 C-5.81289062 2.8503125 -5.00078125 2.200625 -4.1640625 1.53125 C-2 0 -2 0 0 0 Z " fill="#757575" transform="translate(94,102)"/>
<path d="M0 0 C-1.22025063 3.6607519 -2.126491 3.92339441 -5.4375 5.6875 C-6.64212891 6.34298828 -6.64212891 6.34298828 -7.87109375 7.01171875 C-10 8 -10 8 -12 8 C-12 7.01 -12 6.02 -12 5 C-12.66 4.67 -13.32 4.34 -14 4 C-12.23141309 3.32739649 -10.46003984 2.66211605 -8.6875 2 C-7.70136719 1.62875 -6.71523437 1.2575 -5.69921875 0.875 C-3 0 -3 0 0 0 Z " fill="#919191" transform="translate(102,91)"/>
<path d="M0 0 C0.66 0.33 1.32 0.66 2 1 C2 2.32 2 3.64 2 5 C-3.17578125 8.22265625 -3.17578125 8.22265625 -5 9 C-5.99 8.67 -6.98 8.34 -8 8 C-5.58443874 4.80800833 -3.31996462 2.25283313 0 0 Z " fill="#838383" transform="translate(16,69)"/>
<path d="M0 0 C0.99 0.33 1.98 0.66 3 1 C-2.0940919 8.68490153 -2.0940919 8.68490153 -5.875 10 C-6.57625 10 -7.2775 10 -8 10 C-6.34908222 5.70761377 -3.26245434 3.1206085 0 0 Z " fill="#7B7B7B" transform="translate(106,97)"/>
<path d="M0 0 C0.66 0.33 1.32 0.66 2 1 C1.67 1.66 1.34 2.32 1 3 C1.495 2.835 1.99 2.67 2.5 2.5 C6.03444089 1.79311182 9.39690701 1.93994845 13 2 C12.67 3.32 12.34 4.64 12 6 C12.99 6.33 13.98 6.66 15 7 C13.02 7.66 11.04 8.32 9 9 C9.33 7.35 9.66 5.7 10 4 C6.7 4 3.4 4 0 4 C0 2.68 0 1.36 0 0 Z " fill="#CCCCCC" transform="translate(70,14)"/>
<path d="M0 0 C1.65 0 3.3 0 5 0 C5 0.33 5 0.66 5 1 C7.64 1.33 10.28 1.66 13 2 C12.67 2.99 12.34 3.98 12 5 C11.67 4.34 11.34 3.68 11 3 C5.06 3.495 5.06 3.495 -1 4 C-0.67 2.68 -0.34 1.36 0 0 Z " fill="#525252" transform="translate(72,13)"/>
<path d="M0 0 C0.66 1.32 1.32 2.64 2 4 C0.02 6.31 -1.96 8.62 -4 11 C-4.66 10.67 -5.32 10.34 -6 10 C-5.360625 9.401875 -4.72125 8.80375 -4.0625 8.1875 C-1.79689611 6.09189663 -1.79689611 6.09189663 -1 3 C-1.66 2.67 -2.32 2.34 -3 2 C-2.01 1.34 -1.02 0.68 0 0 Z " fill="#8F8F8F" transform="translate(86,107)"/>
<path d="M0 0 C0 0.66 0 1.32 0 2 C-0.99 2 -1.98 2 -3 2 C-3 2.66 -3 3.32 -3 4 C-2.01 4.33 -1.02 4.66 0 5 C-0.33 5.66 -0.66 6.32 -1 7 C-3.31 7 -5.62 7 -8 7 C-3.53191489 0 -3.53191489 0 0 0 Z " fill="#494949" transform="translate(24,65)"/>
<path d="M0 0 C0.66 0 1.32 0 2 0 C3.25 6.625 3.25 6.625 1 10 C-0.1577506 6.52674819 -0.06866652 3.63932552 0 0 Z " fill="#CDCDCD" transform="translate(13,101)"/>
<path d="M0 0 C1.98 0.99 3.96 1.98 6 3 C6 3.99 6 4.98 6 6 C6.33 6.66 6.66 7.32 7 8 C4.13792848 6.71700242 1.9754912 5.469364 0 3 C0 2.01 0 1.02 0 0 Z " fill="#B5B5B5" transform="translate(17,141)"/>
<path d="M0 0 C1.32 0.33 2.64 0.66 4 1 C3.01 1.495 3.01 1.495 2 2 C2.02320312 2.62648437 2.04640625 3.25296875 2.0703125 3.8984375 C2.08835937 4.71570313 2.10640625 5.53296875 2.125 6.375 C2.14820312 7.18710938 2.17140625 7.99921875 2.1953125 8.8359375 C2 11 2 11 0 13 C0 8.71 0 4.42 0 0 Z " fill="#B8B8B8" transform="translate(102,141)"/>
<path d="M0 0 C-0.8125 1.9375 -0.8125 1.9375 -2 4 C-2.99 4.33 -3.98 4.66 -5 5 C-5 4.01 -5 3.02 -5 2 C-5.66 1.67 -6.32 1.34 -7 1 C-4.53721199 -0.231394 -2.7204945 -0.07159196 0 0 Z " fill="#5C5C5C" transform="translate(95,94)"/>
<path d="M0 0 C0.33 0.66 0.66 1.32 1 2 C1.99 2.33 2.98 2.66 4 3 C3.67 3.66 3.34 4.32 3 5 C2.01 5 1.02 5 0 5 C-2.15028304 5.94978897 -2.15028304 5.94978897 -4 7 C-2.68 4.69 -1.36 2.38 0 0 Z " fill="#7C7C7C" transform="translate(91,113)"/>
<path d="M0 0 C4.875 4.75 4.875 4.75 6 7 C4.35 7 2.7 7 1 7 C0.34 5.02 -0.32 3.04 -1 1 C-0.67 0.67 -0.34 0.34 0 0 Z " fill="#9B9B9B" transform="translate(33,91)"/>
<path d="M0 0 C0.33 0 0.66 0 1 0 C1 2.31 1 4.62 1 7 C0.67 7 0.34 7 0 7 C0 4.69 0 2.38 0 0 Z " fill="#FBFBFB" transform="translate(102,155)"/>
<path d="" fill="#FFFFFF" transform="translate(0,0)"/>
</svg>
